<mxfile host="app.diagrams.net" agent="Mozilla/5.0 (Windows NT 10.0; Win64; x64) AppleWebKit/537.36 (KHTML, like Gecko) Chrome/134.0.0.0 Safari/537.36" version="26.1.1" pages="3">
  <diagram name="第 1 页" id="_I4pRi6Ugj99aDlZGNes">
    <mxGraphModel dx="1562" dy="810" grid="0" gridSize="10" guides="1" tooltips="1" connect="1" arrows="1" fold="1" page="1" pageScale="1" pageWidth="827" pageHeight="1169" math="0" shadow="0">
      <root>
        <mxCell id="0" />
        <mxCell id="1" parent="0" />
        <mxCell id="k4bKeRdLo5P64IA71pMl-8" value="FPlatformFileManager" style="swimlane;fontStyle=1;align=center;verticalAlign=top;childLayout=stackLayout;horizontal=1;startSize=26;horizontalStack=0;resizeParent=1;resizeParentMax=0;resizeLast=0;collapsible=1;marginBottom=0;whiteSpace=wrap;html=1;" vertex="1" parent="1">
          <mxGeometry x="69" y="128.5" width="242" height="110" as="geometry" />
        </mxCell>
        <mxCell id="k4bKeRdLo5P64IA71pMl-10" value="" style="line;strokeWidth=1;fillColor=none;align=left;verticalAlign=middle;spacingTop=-1;spacingLeft=3;spacingRight=3;rotatable=0;labelPosition=right;points=[];portConstraint=eastwest;strokeColor=inherit;" vertex="1" parent="k4bKeRdLo5P64IA71pMl-8">
          <mxGeometry y="26" width="242" height="8" as="geometry" />
        </mxCell>
        <mxCell id="k4bKeRdLo5P64IA71pMl-11" value="+ Get(): FPlatformFileManager&amp;amp;&lt;br/&gt;+ GetPlatformFile(): IPlatformFile&amp;amp;&lt;br/&gt;+ SetPlatformFile(IPlatformFile&amp;amp; NewTopmostPlatformFile): void" style="text;strokeColor=none;fillColor=none;align=left;verticalAlign=top;spacingLeft=4;spacingRight=4;overflow=hidden;rotatable=0;points=[[0,0.5],[1,0.5]];portConstraint=eastwest;whiteSpace=wrap;html=1;" vertex="1" parent="k4bKeRdLo5P64IA71pMl-8">
          <mxGeometry y="34" width="242" height="76" as="geometry" />
        </mxCell>
        <mxCell id="k4bKeRdLo5P64IA71pMl-12" value="FOpenHarmonyPlatformFile" style="swimlane;fontStyle=1;align=center;verticalAlign=top;childLayout=stackLayout;horizontal=1;startSize=26;horizontalStack=0;resizeParent=1;resizeParentMax=0;resizeLast=0;collapsible=1;marginBottom=0;whiteSpace=wrap;html=1;" vertex="1" parent="1">
          <mxGeometry x="402" y="613" width="402" height="193" as="geometry" />
        </mxCell>
        <mxCell id="k4bKeRdLo5P64IA71pMl-14" value="" style="line;strokeWidth=1;fillColor=none;align=left;verticalAlign=middle;spacingTop=-1;spacingLeft=3;spacingRight=3;rotatable=0;labelPosition=right;points=[];portConstraint=eastwest;strokeColor=inherit;" vertex="1" parent="k4bKeRdLo5P64IA71pMl-12">
          <mxGeometry y="26" width="402" height="8" as="geometry" />
        </mxCell>
        <mxCell id="k4bKeRdLo5P64IA71pMl-15" value="- bLoggingError: bool&lt;br/&gt;+ Initialize(IPlatformFile* Inner, const TCHAR* CmdLine): bool&lt;br/&gt;+ FileExists(const TCHAR* Filename): bool&lt;br/&gt;+ OpenRead(const TCHAR* Filename): IFileHandle*&lt;br/&gt;+ OpenWrite(const TCHAR* Filename): IFileHandle*&lt;br/&gt;- NormalizePath(const TCHAR* Path): FString&lt;br/&gt;- PathToOpenHarmonyPaths(FString&amp;amp; LocalPath, FString&amp;amp; AssetPath, const TCHAR* Path, bool AllowLocal): void" style="text;strokeColor=none;fillColor=none;align=left;verticalAlign=top;spacingLeft=4;spacingRight=4;overflow=hidden;rotatable=0;points=[[0,0.5],[1,0.5]];portConstraint=eastwest;whiteSpace=wrap;html=1;" vertex="1" parent="k4bKeRdLo5P64IA71pMl-12">
          <mxGeometry y="34" width="402" height="159" as="geometry" />
        </mxCell>
        <mxCell id="k4bKeRdLo5P64IA71pMl-16" value="IOpenHarmonyPlatformFile" style="swimlane;fontStyle=1;align=center;verticalAlign=top;childLayout=stackLayout;horizontal=1;startSize=26;horizontalStack=0;resizeParent=1;resizeParentMax=0;resizeLast=0;collapsible=1;marginBottom=0;whiteSpace=wrap;html=1;" vertex="1" parent="1">
          <mxGeometry x="461" y="439.5" width="284" height="145" as="geometry" />
        </mxCell>
        <mxCell id="k4bKeRdLo5P64IA71pMl-18" value="" style="line;strokeWidth=1;fillColor=none;align=left;verticalAlign=middle;spacingTop=-1;spacingLeft=3;spacingRight=3;rotatable=0;labelPosition=right;points=[];portConstraint=eastwest;strokeColor=inherit;" vertex="1" parent="k4bKeRdLo5P64IA71pMl-16">
          <mxGeometry y="26" width="284" height="8" as="geometry" />
        </mxCell>
        <mxCell id="k4bKeRdLo5P64IA71pMl-19" value="+ GetAssetManager(): NativeResourceManager*&lt;br/&gt;+ IsAsset(const FString&amp;amp; AssetPath): bool&lt;br/&gt;+ FileStartOffset(const TCHAR* Filename): int64&lt;br/&gt;+ FileRootPath(const TCHAR* Filename): FString&lt;div&gt;&lt;br/&gt;&lt;/div&gt;" style="text;strokeColor=none;fillColor=none;align=left;verticalAlign=top;spacingLeft=4;spacingRight=4;overflow=hidden;rotatable=0;points=[[0,0.5],[1,0.5]];portConstraint=eastwest;whiteSpace=wrap;html=1;" vertex="1" parent="k4bKeRdLo5P64IA71pMl-16">
          <mxGeometry y="34" width="284" height="111" as="geometry" />
        </mxCell>
        <mxCell id="k4bKeRdLo5P64IA71pMl-20" value="IPhysicalPlatformFile" style="swimlane;fontStyle=1;align=center;verticalAlign=top;childLayout=stackLayout;horizontal=1;startSize=26;horizontalStack=0;resizeParent=1;resizeParentMax=0;resizeLast=0;collapsible=1;marginBottom=0;whiteSpace=wrap;html=1;" vertex="1" parent="1">
          <mxGeometry x="492" y="299" width="230" height="110" as="geometry" />
        </mxCell>
        <mxCell id="k4bKeRdLo5P64IA71pMl-22" value="" style="line;strokeWidth=1;fillColor=none;align=left;verticalAlign=middle;spacingTop=-1;spacingLeft=3;spacingRight=3;rotatable=0;labelPosition=right;points=[];portConstraint=eastwest;strokeColor=inherit;" vertex="1" parent="k4bKeRdLo5P64IA71pMl-20">
          <mxGeometry y="26" width="230" height="8" as="geometry" />
        </mxCell>
        <mxCell id="k4bKeRdLo5P64IA71pMl-23" value="+ Initialize(IPlatformFile* Inner, const TCHAR* CmdLine): bool&lt;br/&gt;+ GetLowerLevel(): IPlatformFile*" style="text;strokeColor=none;fillColor=none;align=left;verticalAlign=top;spacingLeft=4;spacingRight=4;overflow=hidden;rotatable=0;points=[[0,0.5],[1,0.5]];portConstraint=eastwest;whiteSpace=wrap;html=1;" vertex="1" parent="k4bKeRdLo5P64IA71pMl-20">
          <mxGeometry y="34" width="230" height="76" as="geometry" />
        </mxCell>
        <mxCell id="k4bKeRdLo5P64IA71pMl-24" value="IFileHandle" style="swimlane;fontStyle=1;align=center;verticalAlign=top;childLayout=stackLayout;horizontal=1;startSize=26;horizontalStack=0;resizeParent=1;resizeParentMax=0;resizeLast=0;collapsible=1;marginBottom=0;whiteSpace=wrap;html=1;" vertex="1" parent="1">
          <mxGeometry x="76" y="324" width="220" height="151" as="geometry" />
        </mxCell>
        <mxCell id="k4bKeRdLo5P64IA71pMl-26" value="" style="line;strokeWidth=1;fillColor=none;align=left;verticalAlign=middle;spacingTop=-1;spacingLeft=3;spacingRight=3;rotatable=0;labelPosition=right;points=[];portConstraint=eastwest;strokeColor=inherit;" vertex="1" parent="k4bKeRdLo5P64IA71pMl-24">
          <mxGeometry y="26" width="220" height="8" as="geometry" />
        </mxCell>
        <mxCell id="k4bKeRdLo5P64IA71pMl-27" value="+ Read(uint8* Destination, int64 BytesToRead): bool&lt;br/&gt;+ Write(const uint8* Source, int64 BytesToWrite): bool&lt;br/&gt;+ Seek(int64 NewPosition): bool&lt;br/&gt;+ Tell(): int64&lt;br/&gt;+ Size(): int64" style="text;strokeColor=none;fillColor=none;align=left;verticalAlign=top;spacingLeft=4;spacingRight=4;overflow=hidden;rotatable=0;points=[[0,0.5],[1,0.5]];portConstraint=eastwest;whiteSpace=wrap;html=1;" vertex="1" parent="k4bKeRdLo5P64IA71pMl-24">
          <mxGeometry y="34" width="220" height="117" as="geometry" />
        </mxCell>
        <mxCell id="k4bKeRdLo5P64IA71pMl-28" value="FFileHandleOpenHarmony" style="swimlane;fontStyle=1;align=center;verticalAlign=top;childLayout=stackLayout;horizontal=1;startSize=26;horizontalStack=0;resizeParent=1;resizeParentMax=0;resizeLast=0;collapsible=1;marginBottom=0;whiteSpace=wrap;html=1;" vertex="1" parent="1">
          <mxGeometry x="53" y="572" width="266" height="226" as="geometry" />
        </mxCell>
        <mxCell id="k4bKeRdLo5P64IA71pMl-29" value="- File: TSharedPtr&amp;lt;FileReference&amp;gt;&lt;br/&gt;- Start: int64&lt;br/&gt;- Length: int64&lt;br/&gt;- CurrentOffset: int64" style="text;strokeColor=none;fillColor=none;align=left;verticalAlign=top;spacingLeft=4;spacingRight=4;overflow=hidden;rotatable=0;points=[[0,0.5],[1,0.5]];portConstraint=eastwest;whiteSpace=wrap;html=1;" vertex="1" parent="k4bKeRdLo5P64IA71pMl-28">
          <mxGeometry y="26" width="266" height="48" as="geometry" />
        </mxCell>
        <mxCell id="k4bKeRdLo5P64IA71pMl-30" value="" style="line;strokeWidth=1;fillColor=none;align=left;verticalAlign=middle;spacingTop=-1;spacingLeft=3;spacingRight=3;rotatable=0;labelPosition=right;points=[];portConstraint=eastwest;strokeColor=inherit;" vertex="1" parent="k4bKeRdLo5P64IA71pMl-28">
          <mxGeometry y="74" width="266" height="8" as="geometry" />
        </mxCell>
        <mxCell id="k4bKeRdLo5P64IA71pMl-31" value="+ Tell(): int64&lt;br/&gt;+ Seek(int64 NewPosition): bool&lt;br/&gt;+ SeekFromEnd(int64 NewPositionRelativeToEnd): bool&lt;br/&gt;+ Read(uint8* Destination, int64 BytesToRead): bool&lt;br/&gt;+ Write(const uint8* Source, int64 BytesToWrite): bool&lt;br/&gt;+ Size(): int64" style="text;strokeColor=none;fillColor=none;align=left;verticalAlign=top;spacingLeft=4;spacingRight=4;overflow=hidden;rotatable=0;points=[[0,0.5],[1,0.5]];portConstraint=eastwest;whiteSpace=wrap;html=1;" vertex="1" parent="k4bKeRdLo5P64IA71pMl-28">
          <mxGeometry y="82" width="266" height="144" as="geometry" />
        </mxCell>
        <mxCell id="k4bKeRdLo5P64IA71pMl-1" value="IPlatformFile" style="swimlane;fontStyle=1;align=center;verticalAlign=top;childLayout=stackLayout;horizontal=1;startSize=26;horizontalStack=0;resizeParent=1;resizeParentMax=0;resizeLast=0;collapsible=1;marginBottom=0;whiteSpace=wrap;html=1;" vertex="1" parent="1">
          <mxGeometry x="470" y="99" width="284" height="169" as="geometry" />
        </mxCell>
        <mxCell id="k4bKeRdLo5P64IA71pMl-3" value="" style="line;strokeWidth=1;fillColor=none;align=left;verticalAlign=middle;spacingTop=-1;spacingLeft=3;spacingRight=3;rotatable=0;labelPosition=right;points=[];portConstraint=eastwest;strokeColor=inherit;" vertex="1" parent="k4bKeRdLo5P64IA71pMl-1">
          <mxGeometry y="26" width="284" height="8" as="geometry" />
        </mxCell>
        <mxCell id="k4bKeRdLo5P64IA71pMl-4" value="+ Initialize(IPlatformFile* Inner, const TCHAR* CmdLine): bool&lt;br/&gt;+ GetLowerLevel(): IPlatformFile*&lt;br/&gt;+ SetLowerLevel(IPlatformFile* NewLowerLevel): void&lt;br/&gt;+ FileExists(const TCHAR* File): bool&lt;br/&gt;+ OpenRead(const TCHAR* File): IFileHandle*&lt;br/&gt;+ OpenWrite(const TCHAR* File): IFileHandle*" style="text;strokeColor=none;fillColor=none;align=left;verticalAlign=top;spacingLeft=4;spacingRight=4;overflow=hidden;rotatable=0;points=[[0,0.5],[1,0.5]];portConstraint=eastwest;whiteSpace=wrap;html=1;" vertex="1" parent="k4bKeRdLo5P64IA71pMl-1">
          <mxGeometry y="34" width="284" height="135" as="geometry" />
        </mxCell>
        <mxCell id="k4bKeRdLo5P64IA71pMl-33" value="" style="endArrow=block;endFill=0;endSize=12;html=1;rounded=0;entryX=0.482;entryY=1.003;entryDx=0;entryDy=0;entryPerimeter=0;exitX=0.5;exitY=0;exitDx=0;exitDy=0;" edge="1" parent="1" source="k4bKeRdLo5P64IA71pMl-20" target="k4bKeRdLo5P64IA71pMl-4">
          <mxGeometry width="160" relative="1" as="geometry">
            <mxPoint x="277" y="290" as="sourcePoint" />
            <mxPoint x="437" y="290" as="targetPoint" />
          </mxGeometry>
        </mxCell>
        <mxCell id="k4bKeRdLo5P64IA71pMl-35" value="" style="endArrow=block;endFill=0;endSize=12;html=1;rounded=0;entryX=0.486;entryY=1.018;entryDx=0;entryDy=0;entryPerimeter=0;" edge="1" parent="1" source="k4bKeRdLo5P64IA71pMl-16" target="k4bKeRdLo5P64IA71pMl-23">
          <mxGeometry width="160" relative="1" as="geometry">
            <mxPoint x="626" y="321" as="sourcePoint" />
            <mxPoint x="627" y="288" as="targetPoint" />
          </mxGeometry>
        </mxCell>
        <mxCell id="k4bKeRdLo5P64IA71pMl-37" value="" style="endArrow=none;startArrow=none;endFill=0;startFill=0;endSize=8;html=1;verticalAlign=bottom;labelBackgroundColor=none;strokeWidth=1;rounded=0;entryX=0;entryY=0.5;entryDx=0;entryDy=0;exitX=1;exitY=0.5;exitDx=0;exitDy=0;" edge="1" parent="1" source="k4bKeRdLo5P64IA71pMl-11" target="k4bKeRdLo5P64IA71pMl-4">
          <mxGeometry width="160" relative="1" as="geometry">
            <mxPoint x="356" y="183" as="sourcePoint" />
            <mxPoint x="514" y="183" as="targetPoint" />
          </mxGeometry>
        </mxCell>
        <mxCell id="k4bKeRdLo5P64IA71pMl-39" value="1" style="edgeLabel;html=1;align=center;verticalAlign=middle;resizable=0;points=[];" vertex="1" connectable="0" parent="k4bKeRdLo5P64IA71pMl-37">
          <mxGeometry x="-0.6136" relative="1" as="geometry">
            <mxPoint as="offset" />
          </mxGeometry>
        </mxCell>
        <mxCell id="k4bKeRdLo5P64IA71pMl-42" value="1" style="edgeLabel;html=1;align=center;verticalAlign=middle;resizable=0;points=[];" vertex="1" connectable="0" parent="k4bKeRdLo5P64IA71pMl-37">
          <mxGeometry x="0.6068" relative="1" as="geometry">
            <mxPoint as="offset" />
          </mxGeometry>
        </mxCell>
        <mxCell id="k4bKeRdLo5P64IA71pMl-43" value="" style="endArrow=block;startArrow=none;endFill=0;startFill=0;endSize=8;html=1;verticalAlign=bottom;dashed=1;labelBackgroundColor=none;rounded=0;exitX=0.5;exitY=0;exitDx=0;exitDy=0;" edge="1" parent="1" source="k4bKeRdLo5P64IA71pMl-28" target="k4bKeRdLo5P64IA71pMl-27">
          <mxGeometry width="160" relative="1" as="geometry">
            <mxPoint x="332" y="482" as="sourcePoint" />
            <mxPoint x="492" y="482" as="targetPoint" />
          </mxGeometry>
        </mxCell>
        <mxCell id="k4bKeRdLo5P64IA71pMl-44" value="" style="endArrow=block;startArrow=none;endFill=0;startFill=0;endSize=8;html=1;verticalAlign=bottom;dashed=1;labelBackgroundColor=none;rounded=0;exitX=0.5;exitY=0;exitDx=0;exitDy=0;" edge="1" parent="1" source="k4bKeRdLo5P64IA71pMl-12" target="k4bKeRdLo5P64IA71pMl-19">
          <mxGeometry width="160" relative="1" as="geometry">
            <mxPoint x="199" y="478" as="sourcePoint" />
            <mxPoint x="199" y="425" as="targetPoint" />
          </mxGeometry>
        </mxCell>
        <mxCell id="k4bKeRdLo5P64IA71pMl-45" value="" style="endArrow=open;endSize=12;dashed=1;html=1;rounded=0;exitX=0;exitY=0.5;exitDx=0;exitDy=0;entryX=1;entryY=0.5;entryDx=0;entryDy=0;" edge="1" parent="1" source="k4bKeRdLo5P64IA71pMl-15" target="k4bKeRdLo5P64IA71pMl-31">
          <mxGeometry width="160" relative="1" as="geometry">
            <mxPoint x="332" y="482" as="sourcePoint" />
            <mxPoint x="492" y="482" as="targetPoint" />
          </mxGeometry>
        </mxCell>
      </root>
    </mxGraphModel>
  </diagram>
  <diagram id="g7GRGZoastTb_K7f3G4_" name="第 2 页">
    <mxGraphModel dx="1562" dy="810" grid="0" gridSize="10" guides="1" tooltips="1" connect="1" arrows="1" fold="1" page="1" pageScale="1" pageWidth="827" pageHeight="1169" math="0" shadow="0">
      <root>
        <mxCell id="0" />
        <mxCell id="1" parent="0" />
        <mxCell id="xhQ6gdudYXJP6iHgrmWP-13" value="FGenericPlatformInput" style="swimlane;fontStyle=1;align=center;verticalAlign=top;childLayout=stackLayout;horizontal=1;startSize=26;horizontalStack=0;resizeParent=1;resizeParentMax=0;resizeLast=0;collapsible=1;marginBottom=0;whiteSpace=wrap;html=1;" vertex="1" parent="1">
          <mxGeometry x="454" y="76" width="338" height="146" as="geometry" />
        </mxCell>
        <mxCell id="xhQ6gdudYXJP6iHgrmWP-14" value="" style="line;strokeWidth=1;fillColor=none;align=left;verticalAlign=middle;spacingTop=-1;spacingLeft=3;spacingRight=3;rotatable=0;labelPosition=right;points=[];portConstraint=eastwest;strokeColor=inherit;" vertex="1" parent="xhQ6gdudYXJP6iHgrmWP-13">
          <mxGeometry y="26" width="338" height="8" as="geometry" />
        </mxCell>
        <mxCell id="xhQ6gdudYXJP6iHgrmWP-15" value="&lt;div&gt;+ GetKeyMap(uint32*, FString*, uint32): static uint32&lt;/div&gt;&lt;div&gt;+ GetCharKeyMap(uint32*, FString*, uint32): static uint32&lt;/div&gt;&lt;div&gt;+ GetGamepadAcceptKey(): static FKey&lt;/div&gt;&lt;div&gt;+ GetGamepadBackKey(): static FKey&lt;/div&gt;&lt;div&gt;# GetStandardPrintableKeyMap(uint32*, FString*, uint32, bool, bool): protected static uint32&lt;/div&gt;" style="text;strokeColor=none;fillColor=none;align=left;verticalAlign=top;spacingLeft=4;spacingRight=4;overflow=hidden;rotatable=0;points=[[0,0.5],[1,0.5]];portConstraint=eastwest;whiteSpace=wrap;html=1;" vertex="1" parent="xhQ6gdudYXJP6iHgrmWP-13">
          <mxGeometry y="34" width="338" height="112" as="geometry" />
        </mxCell>
        <mxCell id="xhQ6gdudYXJP6iHgrmWP-16" value="FOpenHarmonyPlatformInput" style="swimlane;fontStyle=1;align=center;verticalAlign=top;childLayout=stackLayout;horizontal=1;startSize=26;horizontalStack=0;resizeParent=1;resizeParentMax=0;resizeLast=0;collapsible=1;marginBottom=0;whiteSpace=wrap;html=1;" vertex="1" parent="1">
          <mxGeometry x="495" y="332" width="266" height="131" as="geometry" />
        </mxCell>
        <mxCell id="xhQ6gdudYXJP6iHgrmWP-18" value="" style="line;strokeWidth=1;fillColor=none;align=left;verticalAlign=middle;spacingTop=-1;spacingLeft=3;spacingRight=3;rotatable=0;labelPosition=right;points=[];portConstraint=eastwest;strokeColor=inherit;" vertex="1" parent="xhQ6gdudYXJP6iHgrmWP-16">
          <mxGeometry y="26" width="266" height="20" as="geometry" />
        </mxCell>
        <mxCell id="xhQ6gdudYXJP6iHgrmWP-19" value="&lt;div&gt;+ GetCharKeyMap(uint32*, FString*, uint32): static uint32&lt;/div&gt;&lt;div&gt;+ GetKeyMap(uint32*, FString*, uint32): static uint32&lt;/div&gt;" style="text;strokeColor=none;fillColor=none;align=left;verticalAlign=top;spacingLeft=4;spacingRight=4;overflow=hidden;rotatable=0;points=[[0,0.5],[1,0.5]];portConstraint=eastwest;whiteSpace=wrap;html=1;" vertex="1" parent="xhQ6gdudYXJP6iHgrmWP-16">
          <mxGeometry y="46" width="266" height="85" as="geometry" />
        </mxCell>
        <mxCell id="xhQ6gdudYXJP6iHgrmWP-20" value="IForceFeedbackSystem" style="swimlane;fontStyle=1;align=center;verticalAlign=top;childLayout=stackLayout;horizontal=1;startSize=26;horizontalStack=0;resizeParent=1;resizeParentMax=0;resizeLast=0;collapsible=1;marginBottom=0;whiteSpace=wrap;html=1;" vertex="1" parent="1">
          <mxGeometry x="97.5" y="341" width="284" height="71" as="geometry" />
        </mxCell>
        <mxCell id="xhQ6gdudYXJP6iHgrmWP-21" value="" style="line;strokeWidth=1;fillColor=none;align=left;verticalAlign=middle;spacingTop=-1;spacingLeft=3;spacingRight=3;rotatable=0;labelPosition=right;points=[];portConstraint=eastwest;strokeColor=inherit;" vertex="1" parent="xhQ6gdudYXJP6iHgrmWP-20">
          <mxGeometry y="26" width="284" height="8" as="geometry" />
        </mxCell>
        <mxCell id="xhQ6gdudYXJP6iHgrmWP-22" value="+ ~IForceFeedbackSystem(): virtual" style="text;strokeColor=none;fillColor=none;align=left;verticalAlign=top;spacingLeft=4;spacingRight=4;overflow=hidden;rotatable=0;points=[[0,0.5],[1,0.5]];portConstraint=eastwest;whiteSpace=wrap;html=1;" vertex="1" parent="xhQ6gdudYXJP6iHgrmWP-20">
          <mxGeometry y="34" width="284" height="37" as="geometry" />
        </mxCell>
        <mxCell id="xhQ6gdudYXJP6iHgrmWP-32" value="FOpenHarmonyInputInterface" style="swimlane;fontStyle=1;align=center;verticalAlign=top;childLayout=stackLayout;horizontal=1;startSize=26;horizontalStack=0;resizeParent=1;resizeParentMax=0;resizeLast=0;collapsible=1;marginBottom=0;whiteSpace=wrap;html=1;" vertex="1" parent="1">
          <mxGeometry x="44" y="473" width="391" height="280" as="geometry" />
        </mxCell>
        <mxCell id="xhQ6gdudYXJP6iHgrmWP-33" value="&lt;div&gt;- MessageHandler: FGenericApplicationMessageHandler&lt;/div&gt;&lt;div&gt;- Cursor: ICursor&lt;/div&gt;&lt;div&gt;- TouchInputStack: TArray&amp;lt;TouchInput&amp;gt;&lt;/div&gt;&lt;div&gt;- DeviceMapping: FOpenHarmonyGamepadDeviceMapping[]&lt;/div&gt;&lt;div&gt;- ExternalInputDevices: TArray&amp;lt;IInputDevice&amp;gt;&lt;/div&gt;" style="text;strokeColor=none;fillColor=none;align=left;verticalAlign=top;spacingLeft=4;spacingRight=4;overflow=hidden;rotatable=0;points=[[0,0.5],[1,0.5]];portConstraint=eastwest;whiteSpace=wrap;html=1;" vertex="1" parent="xhQ6gdudYXJP6iHgrmWP-32">
          <mxGeometry y="26" width="391" height="103" as="geometry" />
        </mxCell>
        <mxCell id="xhQ6gdudYXJP6iHgrmWP-34" value="" style="line;strokeWidth=1;fillColor=none;align=left;verticalAlign=middle;spacingTop=-1;spacingLeft=3;spacingRight=3;rotatable=0;labelPosition=right;points=[];portConstraint=eastwest;strokeColor=inherit;" vertex="1" parent="xhQ6gdudYXJP6iHgrmWP-32">
          <mxGeometry y="129" width="391" height="8" as="geometry" />
        </mxCell>
        <mxCell id="xhQ6gdudYXJP6iHgrmWP-35" value="&lt;div&gt;+ Create(): static TSharedRef&amp;lt;FOpenHarmonyInputInterface&amp;gt;&lt;/div&gt;&lt;div&gt;+ SendControllerEvents(): void&lt;/div&gt;&lt;div&gt;+ SetMessageHandler(): void&lt;/div&gt;&lt;div&gt;+ Tick(float): void&lt;/div&gt;&lt;div&gt;+ SetForceFeedbackChannelValue(): void&lt;/div&gt;&lt;div&gt;+ SetForceFeedbackChannelValues(): void&lt;/div&gt;&lt;div&gt;+ IsGamepadAttached(): bool&lt;/div&gt;" style="text;strokeColor=none;fillColor=none;align=left;verticalAlign=top;spacingLeft=4;spacingRight=4;overflow=hidden;rotatable=0;points=[[0,0.5],[1,0.5]];portConstraint=eastwest;whiteSpace=wrap;html=1;" vertex="1" parent="xhQ6gdudYXJP6iHgrmWP-32">
          <mxGeometry y="137" width="391" height="143" as="geometry" />
        </mxCell>
        <mxCell id="xhQ6gdudYXJP6iHgrmWP-36" value="IInputInterface" style="swimlane;fontStyle=1;align=center;verticalAlign=top;childLayout=stackLayout;horizontal=1;startSize=26;horizontalStack=0;resizeParent=1;resizeParentMax=0;resizeLast=0;collapsible=1;marginBottom=0;whiteSpace=wrap;html=1;" vertex="1" parent="1">
          <mxGeometry x="60" y="49" width="359" height="223" as="geometry" />
        </mxCell>
        <mxCell id="xhQ6gdudYXJP6iHgrmWP-38" value="" style="line;strokeWidth=1;fillColor=none;align=left;verticalAlign=middle;spacingTop=-1;spacingLeft=3;spacingRight=3;rotatable=0;labelPosition=right;points=[];portConstraint=eastwest;strokeColor=inherit;" vertex="1" parent="xhQ6gdudYXJP6iHgrmWP-36">
          <mxGeometry y="26" width="359" height="21" as="geometry" />
        </mxCell>
        <mxCell id="xhQ6gdudYXJP6iHgrmWP-39" value="&lt;div&gt;+ ~IInputInterface(): virtual&lt;/div&gt;&lt;div&gt;+ SetForceFeedbackChannelValue(int32, FForceFeedbackChannelType, float): virtual void&lt;/div&gt;&lt;div&gt;+ SetForceFeedbackChannelValues(int32, const FForceFeedbackValues&amp;amp;): virtual void&lt;/div&gt;&lt;div&gt;+ SetHapticFeedbackValues(int32, int32, const FHapticFeedbackValues&amp;amp;): virtual void&lt;/div&gt;&lt;div&gt;+ SetDeviceProperty(int32, const FInputDeviceProperty*): virtual void&lt;/div&gt;&lt;div&gt;+ SetLightColor(int32, FColor): virtual void&lt;/div&gt;&lt;div&gt;+ ResetLightColor(int32): virtual void&lt;/div&gt;" style="text;strokeColor=none;fillColor=none;align=left;verticalAlign=top;spacingLeft=4;spacingRight=4;overflow=hidden;rotatable=0;points=[[0,0.5],[1,0.5]];portConstraint=eastwest;whiteSpace=wrap;html=1;" vertex="1" parent="xhQ6gdudYXJP6iHgrmWP-36">
          <mxGeometry y="47" width="359" height="176" as="geometry" />
        </mxCell>
        <mxCell id="xhQ6gdudYXJP6iHgrmWP-40" value="FOpenHarmonyGamepadDeviceMapping" style="swimlane;fontStyle=1;align=center;verticalAlign=top;childLayout=stackLayout;horizontal=1;startSize=26;horizontalStack=0;resizeParent=1;resizeParentMax=0;resizeLast=0;collapsible=1;marginBottom=0;whiteSpace=wrap;html=1;" vertex="1" parent="1">
          <mxGeometry x="507" y="548.5" width="270" height="131" as="geometry" />
        </mxCell>
        <mxCell id="xhQ6gdudYXJP6iHgrmWP-41" value="&lt;div&gt;- DeviceInfo: FOpenHarmonyInputDeviceInfo&lt;/div&gt;&lt;div&gt;- DeviceState: MappingState&lt;/div&gt;&lt;div&gt;- ControllerClass: ControllerClassType&lt;/div&gt;&lt;div&gt;- ButtonRemapping: ButtonRemapType&lt;/div&gt;" style="text;strokeColor=none;fillColor=none;align=left;verticalAlign=top;spacingLeft=4;spacingRight=4;overflow=hidden;rotatable=0;points=[[0,0.5],[1,0.5]];portConstraint=eastwest;whiteSpace=wrap;html=1;" vertex="1" parent="xhQ6gdudYXJP6iHgrmWP-40">
          <mxGeometry y="26" width="270" height="66" as="geometry" />
        </mxCell>
        <mxCell id="xhQ6gdudYXJP6iHgrmWP-42" value="" style="line;strokeWidth=1;fillColor=none;align=left;verticalAlign=middle;spacingTop=-1;spacingLeft=3;spacingRight=3;rotatable=0;labelPosition=right;points=[];portConstraint=eastwest;strokeColor=inherit;" vertex="1" parent="xhQ6gdudYXJP6iHgrmWP-40">
          <mxGeometry y="92" width="270" height="39" as="geometry" />
        </mxCell>
        <mxCell id="xhQ6gdudYXJP6iHgrmWP-44" value="" style="endArrow=block;dashed=1;endFill=0;endSize=12;html=1;rounded=0;exitX=0.5;exitY=0;exitDx=0;exitDy=0;entryX=0.495;entryY=0.978;entryDx=0;entryDy=0;entryPerimeter=0;" edge="1" parent="1" source="xhQ6gdudYXJP6iHgrmWP-32" target="xhQ6gdudYXJP6iHgrmWP-22">
          <mxGeometry width="160" relative="1" as="geometry">
            <mxPoint x="358" y="415" as="sourcePoint" />
            <mxPoint x="232" y="409" as="targetPoint" />
          </mxGeometry>
        </mxCell>
        <mxCell id="xhQ6gdudYXJP6iHgrmWP-45" value="" style="endArrow=block;endFill=0;endSize=12;html=1;rounded=0;exitX=0.5;exitY=0;exitDx=0;exitDy=0;" edge="1" parent="1" source="xhQ6gdudYXJP6iHgrmWP-20">
          <mxGeometry width="160" relative="1" as="geometry">
            <mxPoint x="257" y="480" as="sourcePoint" />
            <mxPoint x="240" y="273" as="targetPoint" />
          </mxGeometry>
        </mxCell>
        <mxCell id="xhQ6gdudYXJP6iHgrmWP-46" value="" style="endArrow=block;endFill=0;endSize=12;html=1;rounded=0;exitX=0.5;exitY=0;exitDx=0;exitDy=0;entryX=0.511;entryY=1;entryDx=0;entryDy=0;entryPerimeter=0;" edge="1" parent="1" source="xhQ6gdudYXJP6iHgrmWP-16" target="xhQ6gdudYXJP6iHgrmWP-15">
          <mxGeometry width="160" relative="1" as="geometry">
            <mxPoint x="224" y="352" as="sourcePoint" />
            <mxPoint x="224" y="284" as="targetPoint" />
          </mxGeometry>
        </mxCell>
        <mxCell id="xhQ6gdudYXJP6iHgrmWP-47" value="" style="endArrow=diamondThin;endFill=0;endSize=24;html=1;rounded=0;entryX=1.001;entryY=-0.024;entryDx=0;entryDy=0;entryPerimeter=0;" edge="1" parent="1" source="xhQ6gdudYXJP6iHgrmWP-41" target="xhQ6gdudYXJP6iHgrmWP-35">
          <mxGeometry width="160" relative="1" as="geometry">
            <mxPoint x="332" y="416" as="sourcePoint" />
            <mxPoint x="492" y="416" as="targetPoint" />
          </mxGeometry>
        </mxCell>
      </root>
    </mxGraphModel>
  </diagram>
  <diagram id="Ug39ovqzR-Ysvr8CtVeH" name="第 3 页">
    <mxGraphModel dx="1838" dy="953" grid="0" gridSize="10" guides="1" tooltips="1" connect="1" arrows="1" fold="1" page="1" pageScale="1" pageWidth="827" pageHeight="1169" math="0" shadow="0">
      <root>
        <mxCell id="0" />
        <mxCell id="1" parent="0" />
        <mxCell id="_UDmnJjlwrUFfGwZJqq6-1" value="IMediaPlayer" style="swimlane;fontStyle=1;align=center;verticalAlign=top;childLayout=stackLayout;horizontal=1;startSize=26;horizontalStack=0;resizeParent=1;resizeParentMax=0;resizeLast=0;collapsible=1;marginBottom=0;whiteSpace=wrap;html=1;" vertex="1" parent="1">
          <mxGeometry x="37" y="47" width="244" height="201" as="geometry" />
        </mxCell>
        <mxCell id="_UDmnJjlwrUFfGwZJqq6-3" value="" style="line;strokeWidth=1;fillColor=none;align=left;verticalAlign=middle;spacingTop=-1;spacingLeft=3;spacingRight=3;rotatable=0;labelPosition=right;points=[];portConstraint=eastwest;strokeColor=inherit;" vertex="1" parent="_UDmnJjlwrUFfGwZJqq6-1">
          <mxGeometry y="26" width="244" height="18" as="geometry" />
        </mxCell>
        <mxCell id="_UDmnJjlwrUFfGwZJqq6-4" value="&lt;div&gt;+ Close(): void&lt;/div&gt;&lt;div&gt;+ Open(Url: FString, Options: IMediaOptions*): bool&lt;/div&gt;&lt;div&gt;+ GetControls(): IMediaControls&amp;amp;&lt;/div&gt;&lt;div&gt;+ GetTracks(): IMediaTracks&amp;amp;&lt;/div&gt;&lt;div&gt;+ GetSamples(): IMediaSamples&amp;amp;&lt;/div&gt;&lt;div&gt;+ TickFetch(DeltaTime: FTimespan, Timecode: FTimespan): void&lt;/div&gt;&lt;div&gt;+ TickInput(DeltaTime: FTimespan, Timecode: FTimespan): void&lt;/div&gt;" style="text;strokeColor=none;fillColor=none;align=left;verticalAlign=top;spacingLeft=4;spacingRight=4;overflow=hidden;rotatable=0;points=[[0,0.5],[1,0.5]];portConstraint=eastwest;whiteSpace=wrap;html=1;" vertex="1" parent="_UDmnJjlwrUFfGwZJqq6-1">
          <mxGeometry y="44" width="244" height="157" as="geometry" />
        </mxCell>
        <mxCell id="_UDmnJjlwrUFfGwZJqq6-5" value="IMediaControls" style="swimlane;fontStyle=1;align=center;verticalAlign=top;childLayout=stackLayout;horizontal=1;startSize=26;horizontalStack=0;resizeParent=1;resizeParentMax=0;resizeLast=0;collapsible=1;marginBottom=0;whiteSpace=wrap;html=1;" vertex="1" parent="1">
          <mxGeometry x="325" y="59" width="194" height="147" as="geometry" />
        </mxCell>
        <mxCell id="_UDmnJjlwrUFfGwZJqq6-7" value="" style="line;strokeWidth=1;fillColor=none;align=left;verticalAlign=middle;spacingTop=-1;spacingLeft=3;spacingRight=3;rotatable=0;labelPosition=right;points=[];portConstraint=eastwest;strokeColor=inherit;" vertex="1" parent="_UDmnJjlwrUFfGwZJqq6-5">
          <mxGeometry y="26" width="194" height="21" as="geometry" />
        </mxCell>
        <mxCell id="_UDmnJjlwrUFfGwZJqq6-8" value="&lt;div&gt;+ CanControl(Control: EMediaControl): bool&lt;/div&gt;&lt;div&gt;+ GetDuration(): FTimespan&lt;/div&gt;&lt;div&gt;+ GetState(): EMediaState&lt;/div&gt;&lt;div&gt;+ Seek(Time: FTimespan): bool&lt;/div&gt;&lt;div&gt;+ SetRate(Rate: float): bool&lt;/div&gt;" style="text;strokeColor=none;fillColor=none;align=left;verticalAlign=top;spacingLeft=4;spacingRight=4;overflow=hidden;rotatable=0;points=[[0,0.5],[1,0.5]];portConstraint=eastwest;whiteSpace=wrap;html=1;" vertex="1" parent="_UDmnJjlwrUFfGwZJqq6-5">
          <mxGeometry y="47" width="194" height="100" as="geometry" />
        </mxCell>
        <mxCell id="_UDmnJjlwrUFfGwZJqq6-9" value="IMediaTracks" style="swimlane;fontStyle=1;align=center;verticalAlign=top;childLayout=stackLayout;horizontal=1;startSize=26;horizontalStack=0;resizeParent=1;resizeParentMax=0;resizeLast=0;collapsible=1;marginBottom=0;whiteSpace=wrap;html=1;" vertex="1" parent="1">
          <mxGeometry x="549" y="62" width="249" height="148" as="geometry" />
        </mxCell>
        <mxCell id="_UDmnJjlwrUFfGwZJqq6-11" value="" style="line;strokeWidth=1;fillColor=none;align=left;verticalAlign=middle;spacingTop=-1;spacingLeft=3;spacingRight=3;rotatable=0;labelPosition=right;points=[];portConstraint=eastwest;strokeColor=inherit;" vertex="1" parent="_UDmnJjlwrUFfGwZJqq6-9">
          <mxGeometry y="26" width="249" height="21" as="geometry" />
        </mxCell>
        <mxCell id="_UDmnJjlwrUFfGwZJqq6-12" value="&lt;div&gt;+ GetNumTracks(TrackType: EMediaTrackType): int32&lt;/div&gt;&lt;div&gt;+ GetSelectedTrack(TrackType: EMediaTrackType): int32&lt;/div&gt;&lt;div&gt;+ SelectTrack(TrackType: EMediaTrackType, TrackIndex: int32): bool&lt;/div&gt;" style="text;strokeColor=none;fillColor=none;align=left;verticalAlign=top;spacingLeft=4;spacingRight=4;overflow=hidden;rotatable=0;points=[[0,0.5],[1,0.5]];portConstraint=eastwest;whiteSpace=wrap;html=1;" vertex="1" parent="_UDmnJjlwrUFfGwZJqq6-9">
          <mxGeometry y="47" width="249" height="101" as="geometry" />
        </mxCell>
        <mxCell id="_UDmnJjlwrUFfGwZJqq6-18" value="FOpenHarmonyMediaPlayer" style="swimlane;fontStyle=1;align=center;verticalAlign=top;childLayout=stackLayout;horizontal=1;startSize=26;horizontalStack=0;resizeParent=1;resizeParentMax=0;resizeLast=0;collapsible=1;marginBottom=0;whiteSpace=wrap;html=1;" vertex="1" parent="1">
          <mxGeometry x="243" y="318" width="358" height="242" as="geometry" />
        </mxCell>
        <mxCell id="_UDmnJjlwrUFfGwZJqq6-19" value="&lt;div&gt;- avPlayer: OHAvPlayer&lt;/div&gt;&lt;div&gt;- mBitmapRenderer: FOpenHarmonyBitmapRenderer*&lt;/div&gt;&lt;div&gt;- MediaUrl: FString&lt;/div&gt;" style="text;strokeColor=none;fillColor=none;align=left;verticalAlign=top;spacingLeft=4;spacingRight=4;overflow=hidden;rotatable=0;points=[[0,0.5],[1,0.5]];portConstraint=eastwest;whiteSpace=wrap;html=1;" vertex="1" parent="_UDmnJjlwrUFfGwZJqq6-18">
          <mxGeometry y="26" width="358" height="49" as="geometry" />
        </mxCell>
        <mxCell id="_UDmnJjlwrUFfGwZJqq6-20" value="" style="line;strokeWidth=1;fillColor=none;align=left;verticalAlign=middle;spacingTop=-1;spacingLeft=3;spacingRight=3;rotatable=0;labelPosition=right;points=[];portConstraint=eastwest;strokeColor=inherit;" vertex="1" parent="_UDmnJjlwrUFfGwZJqq6-18">
          <mxGeometry y="75" width="358" height="26" as="geometry" />
        </mxCell>
        <mxCell id="_UDmnJjlwrUFfGwZJqq6-21" value="&lt;div&gt;+ Close(): void&lt;/div&gt;&lt;div&gt;+ Open(Url: FString, Options: IMediaOptions*): bool&lt;/div&gt;&lt;div&gt;+ GetControls(): IMediaControls&amp;amp;&lt;/div&gt;&lt;div&gt;+ GetTracks(): IMediaTracks&amp;amp;&lt;/div&gt;&lt;div&gt;+ TickFetch(DeltaTime: FTimespan, Timecode: FTimespan): void&lt;/div&gt;&lt;div&gt;+ TickInput(DeltaTime: FTimespan, Timecode: FTimespan): void&lt;/div&gt;&lt;div&gt;- InitializePlayer(fd: RawFileDescriptor64&amp;amp;): bool&lt;/div&gt;&lt;div&gt;- GetAVPlayerState(): AVPlayerState&lt;/div&gt;&lt;div&gt;- avPlayer: OHAvPlayer&lt;/div&gt;&lt;div&gt;&lt;br&gt;&lt;/div&gt;" style="text;strokeColor=none;fillColor=none;align=left;verticalAlign=top;spacingLeft=4;spacingRight=4;overflow=hidden;rotatable=0;points=[[0,0.5],[1,0.5]];portConstraint=eastwest;whiteSpace=wrap;html=1;" vertex="1" parent="_UDmnJjlwrUFfGwZJqq6-18">
          <mxGeometry y="101" width="358" height="141" as="geometry" />
        </mxCell>
        <mxCell id="_UDmnJjlwrUFfGwZJqq6-26" value="FOpenHarmonyBitmapRenderer" style="swimlane;fontStyle=1;align=center;verticalAlign=top;childLayout=stackLayout;horizontal=1;startSize=26;horizontalStack=0;resizeParent=1;resizeParentMax=0;resizeLast=0;collapsible=1;marginBottom=0;whiteSpace=wrap;html=1;" vertex="1" parent="1">
          <mxGeometry x="50" y="614" width="361" height="321" as="geometry" />
        </mxCell>
        <mxCell id="_UDmnJjlwrUFfGwZJqq6-27" value="&lt;div&gt;- mEglDisplay: EGLDisplay&lt;/div&gt;&lt;div&gt;- mEglContext: EGLContext&lt;/div&gt;&lt;div&gt;- mEglSurface: EGLSurface&lt;/div&gt;&lt;div&gt;- mNativeImage: OH_NativeImage*&lt;/div&gt;&lt;div&gt;- mNativeWindow: OHNativeWindow*&lt;/div&gt;" style="text;strokeColor=none;fillColor=none;align=left;verticalAlign=top;spacingLeft=4;spacingRight=4;overflow=hidden;rotatable=0;points=[[0,0.5],[1,0.5]];portConstraint=eastwest;whiteSpace=wrap;html=1;" vertex="1" parent="_UDmnJjlwrUFfGwZJqq6-26">
          <mxGeometry y="26" width="361" height="90" as="geometry" />
        </mxCell>
        <mxCell id="_UDmnJjlwrUFfGwZJqq6-28" value="" style="line;strokeWidth=1;fillColor=none;align=left;verticalAlign=middle;spacingTop=-1;spacingLeft=3;spacingRight=3;rotatable=0;labelPosition=right;points=[];portConstraint=eastwest;strokeColor=inherit;" vertex="1" parent="_UDmnJjlwrUFfGwZJqq6-26">
          <mxGeometry y="116" width="361" height="8" as="geometry" />
        </mxCell>
        <mxCell id="_UDmnJjlwrUFfGwZJqq6-29" value="&lt;div&gt;+ FOpenHarmonyBitmapRenderer(swizzlePixels: bool, isVulkan: bool, player: OHAvPlayer*)&lt;/div&gt;&lt;div&gt;+ initContext(): void&lt;/div&gt;&lt;div&gt;+ saveContext(): void&lt;/div&gt;&lt;div&gt;+ makeCurrent(): void&lt;/div&gt;&lt;div&gt;+ restoreContext(): void&lt;/div&gt;&lt;div&gt;+ initSurfaceTexture(player: OHAvPlayer*): void&lt;/div&gt;&lt;div&gt;+ copyFrameTexture(destTexture: int, destData: unsigned char*): bool&lt;/div&gt;&lt;div&gt;+ updateFrameData(outPixels: void*&amp;amp;, outCount: int64&amp;amp;): bool&lt;/div&gt;&lt;div&gt;+ updateFrameData(destTexture: int): bool&lt;/div&gt;&lt;div&gt;+ setSize(width: int, height: int): void&lt;/div&gt;&lt;div&gt;+ isValid(): bool&lt;/div&gt;" style="text;strokeColor=none;fillColor=none;align=left;verticalAlign=top;spacingLeft=4;spacingRight=4;overflow=hidden;rotatable=0;points=[[0,0.5],[1,0.5]];portConstraint=eastwest;whiteSpace=wrap;html=1;" vertex="1" parent="_UDmnJjlwrUFfGwZJqq6-26">
          <mxGeometry y="124" width="361" height="197" as="geometry" />
        </mxCell>
        <mxCell id="_UDmnJjlwrUFfGwZJqq6-30" value="" style="endArrow=block;dashed=1;endFill=0;endSize=12;html=1;rounded=0;exitX=0.5;exitY=0;exitDx=0;exitDy=0;entryX=0.449;entryY=1.006;entryDx=0;entryDy=0;entryPerimeter=0;" edge="1" parent="1" source="_UDmnJjlwrUFfGwZJqq6-18" target="_UDmnJjlwrUFfGwZJqq6-4">
          <mxGeometry width="160" relative="1" as="geometry">
            <mxPoint x="329" y="481" as="sourcePoint" />
            <mxPoint x="145" y="254" as="targetPoint" />
          </mxGeometry>
        </mxCell>
        <mxCell id="_UDmnJjlwrUFfGwZJqq6-31" value="FOpenHarmonyMediaTextureSample" style="swimlane;fontStyle=1;align=center;verticalAlign=top;childLayout=stackLayout;horizontal=1;startSize=26;horizontalStack=0;resizeParent=1;resizeParentMax=0;resizeLast=0;collapsible=1;marginBottom=0;whiteSpace=wrap;html=1;" vertex="1" parent="1">
          <mxGeometry x="460" y="625" width="304" height="202" as="geometry" />
        </mxCell>
        <mxCell id="_UDmnJjlwrUFfGwZJqq6-32" value="&lt;div&gt;- Buffer: void*&lt;/div&gt;&lt;div&gt;- Dim: FIntPoint&lt;/div&gt;&lt;div&gt;- Time: FTimespan&lt;/div&gt;" style="text;strokeColor=none;fillColor=none;align=left;verticalAlign=top;spacingLeft=4;spacingRight=4;overflow=hidden;rotatable=0;points=[[0,0.5],[1,0.5]];portConstraint=eastwest;whiteSpace=wrap;html=1;" vertex="1" parent="_UDmnJjlwrUFfGwZJqq6-31">
          <mxGeometry y="26" width="304" height="63" as="geometry" />
        </mxCell>
        <mxCell id="_UDmnJjlwrUFfGwZJqq6-33" value="" style="line;strokeWidth=1;fillColor=none;align=left;verticalAlign=middle;spacingTop=-1;spacingLeft=3;spacingRight=3;rotatable=0;labelPosition=right;points=[];portConstraint=eastwest;strokeColor=inherit;" vertex="1" parent="_UDmnJjlwrUFfGwZJqq6-31">
          <mxGeometry y="89" width="304" height="8" as="geometry" />
        </mxCell>
        <mxCell id="_UDmnJjlwrUFfGwZJqq6-34" value="&lt;div&gt;+ Initialize(InDim: FIntPoint, InDuration: FTimespan): bool&lt;/div&gt;&lt;div&gt;+ InitializeBuffer(InBuffer: void*, InTime: FTimespan, Copy: bool): void&lt;/div&gt;&lt;div&gt;+ GetBuffer(): const void*&lt;/div&gt;&lt;div&gt;+ GetDim(): FIntPoint&lt;/div&gt;" style="text;strokeColor=none;fillColor=none;align=left;verticalAlign=top;spacingLeft=4;spacingRight=4;overflow=hidden;rotatable=0;points=[[0,0.5],[1,0.5]];portConstraint=eastwest;whiteSpace=wrap;html=1;" vertex="1" parent="_UDmnJjlwrUFfGwZJqq6-31">
          <mxGeometry y="97" width="304" height="105" as="geometry" />
        </mxCell>
        <mxCell id="_UDmnJjlwrUFfGwZJqq6-35" value="" style="endArrow=block;dashed=1;endFill=0;endSize=12;html=1;rounded=0;exitX=0.5;exitY=0;exitDx=0;exitDy=0;entryX=0.461;entryY=1.004;entryDx=0;entryDy=0;entryPerimeter=0;" edge="1" parent="1" source="_UDmnJjlwrUFfGwZJqq6-18" target="_UDmnJjlwrUFfGwZJqq6-8">
          <mxGeometry width="160" relative="1" as="geometry">
            <mxPoint x="418" y="318" as="sourcePoint" />
            <mxPoint x="422" y="209" as="targetPoint" />
          </mxGeometry>
        </mxCell>
        <mxCell id="_UDmnJjlwrUFfGwZJqq6-36" value="" style="endArrow=block;dashed=1;endFill=0;endSize=12;html=1;rounded=0;exitX=0.5;exitY=0;exitDx=0;exitDy=0;entryX=0.502;entryY=0.996;entryDx=0;entryDy=0;entryPerimeter=0;" edge="1" parent="1" source="_UDmnJjlwrUFfGwZJqq6-18" target="_UDmnJjlwrUFfGwZJqq6-12">
          <mxGeometry width="160" relative="1" as="geometry">
            <mxPoint x="428" y="328" as="sourcePoint" />
            <mxPoint x="693" y="205" as="targetPoint" />
          </mxGeometry>
        </mxCell>
        <mxCell id="_UDmnJjlwrUFfGwZJqq6-37" value="" style="endArrow=diamondThin;endFill=1;endSize=24;html=1;rounded=0;entryX=0.405;entryY=1.01;entryDx=0;entryDy=0;entryPerimeter=0;exitX=0.5;exitY=0;exitDx=0;exitDy=0;" edge="1" parent="1" source="_UDmnJjlwrUFfGwZJqq6-26" target="_UDmnJjlwrUFfGwZJqq6-21">
          <mxGeometry width="160" relative="1" as="geometry">
            <mxPoint x="707" y="466" as="sourcePoint" />
            <mxPoint x="867" y="466" as="targetPoint" />
          </mxGeometry>
        </mxCell>
        <mxCell id="_UDmnJjlwrUFfGwZJqq6-38" value="" style="endArrow=open;endSize=12;dashed=1;html=1;rounded=0;entryX=0.5;entryY=0;entryDx=0;entryDy=0;exitX=0.652;exitY=1.01;exitDx=0;exitDy=0;exitPerimeter=0;" edge="1" parent="1" source="_UDmnJjlwrUFfGwZJqq6-21" target="_UDmnJjlwrUFfGwZJqq6-31">
          <mxGeometry width="160" relative="1" as="geometry">
            <mxPoint x="486" y="564" as="sourcePoint" />
            <mxPoint x="606" y="623" as="targetPoint" />
          </mxGeometry>
        </mxCell>
      </root>
    </mxGraphModel>
  </diagram>
</mxfile>
